# xmcd
#
# Track frame offsets:
#	150
#	19123
#	34355
#	54576
#	67332
#	88474
#	103332
#	115261
#	133712
#	159894
#
# Disc length: 2307 seconds
#
# Revision: 1
# Processed by: cddbd v1.5.2PL0 Copyright (c) Steve Scherf et al.
# Submitted via: audiograbber 1.83.01
#
DISCID=9209010a
DTITLE=Allie Parker - Expect Candy
DYEAR=2013
DGENRE=Folk, World, and Country
TTITLE0=no needle
TTITLE1=rain on this town
TTITLE2=the people I adore
TTITLE3=expect candy
TTITLE4=gangplank galleon
TTITLE5=3,75 dpt.
TTITLE6=champagne and orange juice
TTITLE7=districts, parts, belongings
TTITLE8=this strange place
TTITLE9=back to the woods
EXTD=Barnes and Quincy - BQ 008
EXTT0=
EXTT1=
EXTT2=
EXTT3=
EXTT4=
EXTT5=
EXTT6=
EXTT7=
EXTT8=
EXTT9=
PLAYORDER=
